<svg width="37" height="35" viewBox="0 0 37 35" fill="none" xmlns="http://www.w3.org/2000/svg">
<path d="M35.0332 11.7142L24.571 10.816L20.4855 1.2992C19.7506 -0.433067 17.2431 -0.433067 16.5082 1.2992L12.4227 10.8374L1.98211 11.7142C0.0798878 11.8639 -0.698293 14.2164 0.749988 15.4568L8.68311 22.2575L6.30534 32.3517C5.87301 34.1909 7.88331 35.6452 9.52614 34.6614L18.4968 29.3149L27.4675 34.6828C29.1104 35.6666 31.1207 34.2123 30.6883 32.3731L28.3106 22.2575L36.2437 15.4568C37.692 14.2164 36.9354 11.8639 35.0332 11.7142ZM18.4968 25.3157L10.3692 30.1704L12.5308 21.0171L5.35423 14.858L14.8221 14.0453L18.4968 5.42671L22.1932 14.0667L31.6611 14.8793L24.4845 21.0385L26.6461 30.1917L18.4968 25.3157Z" fill="white"/>
</svg>
