<svg width="54" height="47" viewBox="0 0 54 47" fill="none" xmlns="http://www.w3.org/2000/svg">
<path fill-rule="evenodd" clip-rule="evenodd" d="M21.4791 21.9087C21.6581 22.0957 21.8582 22.2607 22.0582 22.4038L18.3203 26.3095C16.8672 27.8277 16.8672 30.2922 18.3203 31.8104C18.5204 32.0195 18.731 32.1955 18.9521 32.3385C17.9412 33.8568 18.0781 35.9582 19.3732 37.3114C20.4894 38.4776 22.132 38.7417 23.5008 38.1256C23.6587 38.4226 23.8693 38.7087 24.1115 38.9617C25.5645 40.48 27.9231 40.48 29.3762 38.9617L29.9553 38.3566C30.0922 38.5656 30.2501 38.7747 30.4291 38.9617C31.8822 40.48 34.2408 40.48 35.6938 38.9617L44.6438 29.6101C49.5821 24.4501 49.5821 16.0666 44.6438 10.9067C39.7055 5.74681 31.6821 5.74681 26.7438 10.9067L21.4791 16.4077C20.0261 17.926 20.0261 20.3904 21.4791 21.9087ZM42.5379 13.1071C38.7579 9.15742 32.6298 9.15742 28.8497 13.1071L23.585 18.6081C23.2902 18.9162 23.2902 19.4002 23.585 19.7083C23.8798 20.0163 24.3431 20.0163 24.6379 19.7083L29.7811 14.7806C31.5289 16.6069 33.9459 16.5837 35.6938 14.7574L37.7997 16.9578C35.6412 19.2132 32.4929 19.7963 29.8184 18.6961L20.4262 28.5099C20.1314 28.8179 20.1314 29.302 20.4262 29.6101C20.721 29.9181 21.1843 29.9181 21.4791 29.6101L28.3232 22.4588L30.4291 24.6592L21.4791 34.0108C21.1843 34.3189 21.1843 34.803 21.4791 35.111C21.774 35.4191 22.2372 35.4191 22.5321 35.111L31.4821 25.7594L33.5879 27.9598L26.2174 35.6611C25.9225 35.9692 25.9225 36.4533 26.2174 36.7613C26.5122 37.0694 26.9755 37.0694 27.2703 36.7613L35.6938 27.9598L37.7997 30.1602L32.535 35.6611C32.2402 35.9692 32.2402 36.4533 32.535 36.7613C32.8298 37.0694 33.2931 37.0694 33.5879 36.7613L42.5379 27.4097C46.318 23.46 46.318 17.0568 42.5379 13.1071Z" fill="white"/>
<path d="M28.8497 13.1071C32.6298 9.15742 38.7579 9.15742 42.5379 13.1071C46.318 17.0568 46.318 23.46 42.5379 27.4097L33.5879 36.7613C33.2931 37.0694 32.8298 37.0694 32.535 36.7613C32.2402 36.4533 32.2402 35.9692 32.535 35.6611L37.7997 30.1602L35.6938 27.9598L27.2703 36.7613C26.9755 37.0694 26.5122 37.0694 26.2174 36.7613C25.9225 36.4533 25.9225 35.9692 26.2174 35.6611L33.5879 27.9598L31.4821 25.7594L22.5321 35.111C22.2372 35.4191 21.774 35.4191 21.4791 35.111C21.1843 34.803 21.1843 34.3189 21.4791 34.0108L30.4291 24.6592L28.3232 22.4588L21.4791 29.6101C21.1843 29.9181 20.721 29.9181 20.4262 29.6101C20.1314 29.302 20.1314 28.8179 20.4262 28.5099L29.8184 18.6961C32.4929 19.7963 35.6412 19.2132 37.7997 16.9578L35.6938 14.7574C33.9459 16.5837 31.4351 16.7844 29.6873 14.958L24.6379 19.7083C24.3431 20.0163 23.8798 20.0163 23.585 19.7083C23.2902 19.4002 23.2902 18.9162 23.585 18.6081L28.8497 13.1071Z" fill="#C61535"/>
<path d="M17.9003 39.0523C19.3534 40.5706 21.712 40.5706 23.1651 39.0523C23.3441 38.8653 23.502 38.6563 23.6389 38.4472L24.218 39.0523C25.6711 40.5706 28.0297 40.5706 29.4827 39.0523C29.7249 38.7993 29.9355 38.5132 30.0934 38.2162C31.4622 38.8323 33.1048 38.5682 34.2209 37.402C35.5161 36.0488 35.6529 33.9474 34.6421 32.4292C34.8632 32.2861 35.0738 32.1101 35.2739 31.9011C36.7269 30.3828 36.7269 27.9184 35.2739 26.4001L28.2933 19.4495C28.9777 19.4165 27.6824 19.045 28.2931 18.671L25.3151 21.7834C26.4312 21.1232 23.8949 19.6892 23.1504 18.1333C22.4058 16.5773 29.483 13.7125 29.4826 11.3775L22.1542 8.79695C17.4792 6.68457 12.0355 7.77376 8.42389 11.5474C3.7699 16.4103 3.76988 24.2877 8.42388 29.1506L17.9003 39.0523Z" fill="white"/>
<path d="M10.5297 26.9505C7.04444 23.3089 7.04445 17.3898 10.5297 13.7482C13.2779 10.8766 17.4159 10.0515 20.9749 11.6578L26.0695 13.215L24.2179 14.8484L22.112 17.0487L33.1679 28.6008C33.4627 28.9089 33.4627 29.3929 33.1679 29.701C32.8731 30.0091 32.4098 30.0091 32.115 29.701L24.2179 21.4495L22.112 23.6499L32.115 34.1018C32.4098 34.4098 32.4098 34.8939 32.115 35.202C31.8201 35.51 31.3569 35.51 31.062 35.202L21.0591 24.7501L18.9532 26.9505L27.3767 35.7521C27.6716 36.0601 27.6716 36.5442 27.3767 36.8523C27.0819 37.1603 26.6186 37.1603 26.3238 36.8523L17.9003 28.0507L15.7944 30.2511L21.0591 35.7521C21.3539 36.0601 21.3539 36.5442 21.0591 36.8523C20.7643 37.1603 20.301 37.1603 20.0061 36.8523L10.5297 26.9505Z" fill="#C61535"/>
</svg>
