<svg width="34" height="36" viewBox="0 0 34 36" fill="none" xmlns="http://www.w3.org/2000/svg">
<path d="M0 4C0 4 0.000111264 3.00008 1.64515 1.5C3.2902 -7.84397e-05 4.24998 1.29871e-08 4.24998 1.29871e-08V36H0V4Z" fill="white"/>
<path d="M4.24998 1.29871e-08H8.49997V4H4.24998V1.29871e-08Z" fill="white"/>
<path d="M4.24998 8H8.49997V12H4.24998V8Z" fill="white"/>
<path d="M4.24998 16H8.49997V20H4.24998V16Z" fill="white"/>
<path d="M21.2499 1.29871e-08H25.4999V4H21.2499V1.29871e-08Z" fill="white"/>
<path d="M21.2499 16H25.4999V20H21.2499V16Z" fill="white"/>
<path d="M29.7499 1.29871e-08C29.7499 1.29871e-08 31.8063 -0.00148469 32.9031 0.999547C33.9997 2.00043 33.9999 4 33.9999 4H29.7499V1.29871e-08Z" fill="white"/>
<path d="M29.7499 8H33.9999V12H29.7499V8Z" fill="white"/>
<path d="M29.7499 16H33.9999C33.9999 16 34.0362 17.9668 32.9031 19C31.77 20.0332 29.7499 20 29.7499 20V16Z" fill="white"/>
<path d="M12.75 1.29871e-08H16.9999V4H12.75V1.29871e-08Z" fill="white"/>
<path d="M12.75 8H16.9999V12H12.75V8Z" fill="white"/>
<path d="M12.75 16H16.9999V20H12.75V16Z" fill="white"/>
<path d="M8.49997 4H12.75V8H8.49997V4Z" fill="white"/>
<path d="M8.49997 12H12.75V16H8.49997V12Z" fill="white"/>
<path d="M21.2499 8H25.4999V12H21.2499V8Z" fill="white"/>
<path d="M16.9999 4H21.2499V8H16.9999V4Z" fill="white"/>
<path d="M16.9999 12H21.2499V16H16.9999V12Z" fill="white"/>
<path d="M25.4999 4H29.7499V8H25.4999V4Z" fill="white"/>
<path d="M25.4999 12H29.7499V16H25.4999V12Z" fill="white"/>
</svg>
