<svg width="39" height="40" viewBox="0 0 39 40" fill="none" xmlns="http://www.w3.org/2000/svg">
<path d="M23.4982 7.20172C25.6516 7.20172 27.3973 5.58956 27.3973 3.60086C27.3973 1.61216 25.6516 0 23.4982 0C21.3448 0 19.5991 1.61216 19.5991 3.60086C19.5991 5.58956 21.3448 7.20172 23.4982 7.20172Z" fill="white"/>
<path fill-rule="evenodd" clip-rule="evenodd" d="M31.0005 10.9252C31.0283 10.951 31.0555 10.9762 31.0819 11.0006L38.4122 17.7883C39.1725 18.4904 39.1725 19.6247 38.4122 20.3269C37.6519 21.029 36.4237 21.029 35.6633 20.3269L29.3468 14.4935V34.2082C29.3468 35.1984 28.4695 36.0086 27.3973 36.0086C26.325 36.0086 25.4478 35.1984 25.4478 34.2082V25.206H21.5487V34.2082C21.5487 35.1984 20.6714 36.0086 19.5991 36.0086C18.5269 36.0086 17.6496 35.1984 17.6496 34.2082V12.0809L21.5292 9.00215H26.481C28.9272 9.00215 30.2292 10.2098 31.0005 10.9252Z" fill="white"/>
<path d="M17.6066 10.4215C19.9979 10.4215 22.0057 8.62215 22.0057 6.32059C22.0057 4.01903 19.9979 2.21973 17.6066 2.21973C15.2153 2.21973 13.2075 4.01903 13.2075 6.32059C13.2075 8.62215 15.2153 10.4215 17.6066 10.4215Z" fill="white" stroke="#C61535"/>
<path d="M25.53 13.3535L25.5295 13.353C25.5024 13.3279 25.4744 13.3019 25.4455 13.2752C24.6577 12.5442 23.2328 11.2219 20.5894 11.2219H20.587H20.5845H20.582H20.5795H20.5769H20.5742H20.5715H20.5688H20.566H20.5632H20.5603H20.5574H20.5545H20.5515H20.5485H20.5454H20.5423H20.5391H20.5359H20.5326H20.5293H20.526H20.5226H20.5192H20.5157H20.5122H20.5087H20.5051H20.5015H20.4978H20.4941H20.4903H20.4865H20.4827H20.4788H20.4749H20.4709H20.4669H20.4629H20.4588H20.4546H20.4505H20.4463H20.442H20.4377H20.4334H20.429H20.4246H20.4202H20.4157H20.4111H20.4066H20.402H20.3973H20.3926H20.3879H20.3831H20.3783H20.3735H20.3686H20.3637H20.3587H20.3537H20.3486H20.3436H20.3385H20.3333H20.3281H20.3229H20.3176H20.3123H20.3069H20.3016H20.2961H20.2907H20.2852H20.2796H20.2741H20.2685H20.2628H20.2571H20.2514H20.2457H20.2399H20.234H20.2282H20.2223H20.2163H20.2104H20.2043H20.1983H20.1922H20.1861H20.1799H20.1737H20.1675H20.1612H20.155H20.1486H20.1423H20.1358H20.1294H20.1229H20.1164H20.1099H20.1033H20.0967H20.09H20.0834H20.0766H20.0699H20.0631H20.0563H20.0494H20.0426H20.0356H20.0287H20.0217H20.0147H20.0076H20.0005H19.9934H19.9863H19.9791H19.9719H19.9646H19.9573H19.95H19.9427H19.9353H19.9279H19.9204H19.913H19.9054H19.8979H19.8903H19.8827H19.8751H19.8674H19.8597H19.852H19.8442H19.8364H19.8286H19.8208H19.8129H19.805H19.797H19.789H19.781H19.773H19.7649H19.7568H19.7487H19.7405H19.7323H19.7241H19.7159H19.7076H19.6993H19.691H19.6826H19.6742H19.6658H19.6573H19.6488H19.6403H19.6318H19.6232H19.6146H19.606H19.5973H19.5886H19.5799H19.5712H19.5624H19.5536H19.5448H19.536H19.5271H19.5182H19.5092H19.5003H19.4913H19.4823H19.4732H19.4642H19.4551H19.446H19.4368H19.4276H19.4184H19.4092H19.3999H19.3907H19.3814H19.372H19.3627H19.3533H19.3439H19.3344H19.325H19.3155H19.306H19.2964H19.2869H19.2773H19.2677H19.258H19.2484H19.2387H19.229H19.2192H19.2095H19.1997H19.1899H19.1801H19.1702H19.1603H19.1504H19.1405H19.1305H19.1206H19.1106H19.1005H19.0905H19.0804H19.0703H19.0602H19.0501H19.0399H19.0297H19.0195H19.0093H18.999H18.9888H18.9785H18.9682H18.9578H18.9475H18.9371H18.9267H18.9162H18.9058H18.8953H18.8848H18.8743H18.8638H18.8532H18.8427H18.8321H18.8214H18.8108H18.8002H18.7895H18.7788H18.7681H18.7573H18.7466H18.7358H18.725H18.7142H18.7033H18.6925H18.6816H18.6707H18.6598H18.6488H18.6379H18.6269H18.6159H18.6049H18.5939H18.5828H18.5717H18.5607H18.5496H18.5384H18.5273H18.5161H18.5049H18.4938H18.4825H18.4713H18.4601H18.4488H18.4375H18.4262H18.4149H18.4036H18.3922H18.3808H18.3694H18.358H18.3466H18.3352H18.3237H18.3123H18.3008H18.2893H18.2778H18.2662H18.2547H18.2431H18.2315H18.2199H18.2083H18.1967H18.185H18.1734H18.1617H18.15H18.1383H18.1266H18.1149H18.1031H18.0913H18.0796H18.0678H18.056H18.0441H18.0323H18.0205H18.0086H17.9967H17.9848H17.9729H17.961H17.9491H17.9371H17.9252H17.9132H17.9012H17.8892H17.8772H17.8652H17.8531H17.8411H17.829H17.817H17.8049H17.7928H17.7807H17.7685H17.7564H17.7443H17.7321H17.7199H17.7078H17.6956H17.6834H17.6712H17.6589H17.6467H17.6344H17.6222H17.6099H17.5976H17.5853H17.573H17.5607H17.5484H17.5361H17.5237H17.5114H17.499H17.4866H17.4743H17.4619H17.4495H17.4371H17.4246H17.4122H17.3998H17.3873H17.3749H17.3624H17.3499H17.3374H17.3249H17.3124H17.2999H17.2874H17.2749H17.2624H17.2498H17.2373H17.2247H17.2121H17.1996H17.187H17.1744H17.1618H17.1492H17.1366H17.124H17.1114H17.0987H17.0861H17.0734H17.0608H17.0481H17.0355H17.0228H17.0101H16.9974H16.9847H16.972H16.9593H16.9466H16.9339H16.9212H16.9085H16.8958H16.883H16.8703H16.8575H16.8448H16.832H16.8193H16.8065H16.7937H16.781H16.7682H16.7554H16.7426H16.7298H16.717H16.7043H16.6914H16.6786H16.6658H16.653H16.6402H16.6274H16.6146H16.6017H16.5889H16.5761H16.5632H16.5504H16.5376H16.5247H16.5119H16.499H16.4862H16.4733H16.4605H16.4476H16.4347H16.4219H16.409H16.3962H16.3833H16.3704H16.3576H16.3447H16.3318H16.3189H16.3061H16.2932H16.2803H16.2674H16.2546H16.2417H16.2288H16.2159H16.203H16.1902H16.1773H16.1644H16.1515H16.1387H16.1258H16.1129H16.1H16.0871H16.0743H16.0614H16.0485H16.0356H16.0228H16.0099H15.997H15.9842H15.9713H15.9584H15.9456H15.9327H15.9198H15.907H15.8941H15.8813H15.8684H15.8556H15.8427H15.8299H15.817H15.8042H15.7914H15.7785H15.7657H15.7529H15.7401H15.7272H15.7144H15.7016H15.6888H15.676H15.6632H15.6504H15.6385C11.0599 11.2042 7.28935 8.13124 6.53767 4.15995C6.33507 3.02294 5.31377 2.21973 4.13531 2.21973C2.69791 2.21973 1.45822 3.41159 1.69224 4.85238L1.69217 4.85239L1.6936 4.86037C2.56735 9.73857 6.33945 13.6747 11.258 15.1757V36.9279C11.258 38.231 12.3974 39.2283 13.7075 39.2283C15.0177 39.2283 16.1571 38.231 16.1571 36.9279V28.4258H19.0562V36.9279C19.0562 38.231 20.1955 39.2283 21.5057 39.2283C22.8159 39.2283 23.9552 38.231 23.9552 36.9279V18.3556L29.4325 23.4139C30.3844 24.293 31.9079 24.293 32.8598 23.4139C33.8345 22.5138 33.8345 21.0409 32.8599 20.1408C32.8599 20.1407 32.8598 20.1407 32.8598 20.1407L25.53 13.3535Z" fill="white" stroke="#C61535"/>
<path d="M14.24 10.2004C14.9763 10.8804 8.52747 17.1255 9.89497 21.286C10.1895 22.1492 9.80311 23.0609 8.96209 23.4482C7.91511 23.9303 6.61532 23.428 6.24098 22.3774C4.65175 17.6871 8.06403 11.3398 10.0204 9.62878C11.9768 7.91771 12.8835 8.69415 12.8835 8.69415C12.8835 8.69415 13.5036 9.52034 14.24 10.2004Z" fill="white"/>
</svg>
