<svg width="43" height="39" viewBox="0 0 43 39" fill="none" xmlns="http://www.w3.org/2000/svg">
<path d="M17.4789 37.4555C17.4789 38.2736 18.2087 38.943 19.1008 38.943H25.5885C26.4805 38.943 27.2104 38.2736 27.2104 37.4555V35.9679H17.4789V37.4555ZM22.3446 9.19238C16.084 9.19238 10.9912 13.8632 10.9912 19.6051C10.9912 23.1454 12.9213 26.2544 15.857 28.1435V31.5053C15.857 32.3235 16.5868 32.9929 17.4789 32.9929H27.2104C28.1024 32.9929 28.8323 32.3235 28.8323 31.5053V28.1435C31.768 26.2544 33.698 23.1454 33.698 19.6051C33.698 13.8632 28.6052 9.19238 22.3446 9.19238ZM26.9671 25.704L25.5885 26.5965V30.0178H19.1008V26.5965L17.7222 25.704C15.5326 24.3057 14.235 22.0298 14.235 19.6051C14.235 15.4995 17.8681 12.1674 22.3446 12.1674C26.8211 12.1674 30.4542 15.4995 30.4542 19.6051C30.4542 22.0298 29.1567 24.3057 26.9671 25.704Z" fill="white"/>
<line x1="1.5" y1="-1.5" x2="5.49768" y2="-1.5" transform="matrix(0.736783 -0.676129 0.742511 0.669834 35.0713 11.7314)" stroke="white" stroke-width="3" stroke-linecap="round"/>
<line x1="1.5" y1="-1.5" x2="5.82272" y2="-1.5" transform="matrix(0.999992 0.00405131 -0.00489372 0.999988 35.5151 20.7627)" stroke="white" stroke-width="3" stroke-linecap="round"/>
<line x1="1.5" y1="-1.5" x2="5.60963" y2="-1.5" transform="matrix(0.841066 0.540933 -0.613503 0.789693 32.7896 28.2002)" stroke="white" stroke-width="3" stroke-linecap="round"/>
<line x1="1.5" y1="-1.5" x2="5.50343" y2="-1.5" transform="matrix(-0.74263 -0.669702 -0.736663 0.67626 10.5972 11.6904)" stroke="white" stroke-width="3" stroke-linecap="round"/>
<line x1="1.5" y1="-1.5" x2="5.82272" y2="-1.5" transform="matrix(-0.999992 0.00405131 0.00489372 0.999988 8.32275 20.7627)" stroke="white" stroke-width="3" stroke-linecap="round"/>
<line x1="1.5" y1="-1.5" x2="5.1627" y2="-1.5" transform="matrix(0 -1 -1 0 20.9819 6.66309)" stroke="white" stroke-width="3" stroke-linecap="round"/>
<line x1="1.5" y1="-1.5" x2="5.54899" y2="-1.5" transform="matrix(-0.786923 0.617051 0.687674 0.726019 11.0889 28.2002)" stroke="white" stroke-width="3" stroke-linecap="round"/>
</svg>
