<svg width="550" height="550" viewBox="0 0 550 550" fill="none" xmlns="http://www.w3.org/2000/svg">
  <path d="M408 353L326 170L408 198.094L490 170L408 353Z" fill="#E5183E" />
  <path d="M142 353L60 170L142 198.094L224 170L142 353Z" fill="#E5183E" />
  <path d="M275 47L450 436L275 376.28L100 436L275 47Z" fill="#A5112C" />
  <path d="M275 525L60 47L275 120.383L490 47L275 525Z" fill="#C61535" />
  <path d="M274.5 436L130 115L274.5 164.28L419 115L274.5 436Z" fill="#EFEFEF" />
  <path d="M274.5 365L187 170L274.5 199.937L362 170L274.5 365Z" fill="#E5183E" />
</svg>